<mxfile host="Electron" agent="Mozilla/5.0 (X11; Linux x86_64) AppleWebKit/537.36 (KHTML, like Gecko) draw.io/24.7.8 Chrome/128.0.6613.36 Electron/32.0.1 Safari/537.36" version="24.7.8">
  <diagram name="Page-1" id="PffiAoa-PxCGjbV1jTHz">
    <mxGraphModel dx="1989" dy="2145" grid="1" gridSize="10" guides="1" tooltips="1" connect="1" arrows="1" fold="1" page="1" pageScale="1" pageWidth="850" pageHeight="1100" math="0" shadow="0">
      <root>
        <mxCell id="0" />
        <mxCell id="1" parent="0" />
        <mxCell id="UCEh_sZu_lQFCK1zteV--4" value="AWS Cloud" style="points=[[0,0],[0.25,0],[0.5,0],[0.75,0],[1,0],[1,0.25],[1,0.5],[1,0.75],[1,1],[0.75,1],[0.5,1],[0.25,1],[0,1],[0,0.75],[0,0.5],[0,0.25]];outlineConnect=0;gradientColor=none;html=1;whiteSpace=wrap;fontSize=14;fontStyle=0;container=1;pointerEvents=0;collapsible=0;recursiveResize=0;shape=mxgraph.aws4.group;grIcon=mxgraph.aws4.group_aws_cloud_alt;strokeColor=#232F3E;fillColor=none;verticalAlign=top;align=left;spacingLeft=30;fontColor=#232F3E;dashed=0;" vertex="1" parent="1">
          <mxGeometry x="240" y="-110" width="1500" height="750" as="geometry" />
        </mxCell>
        <mxCell id="UCEh_sZu_lQFCK1zteV--12" value="" style="group;fontSize=16;" vertex="1" connectable="0" parent="UCEh_sZu_lQFCK1zteV--4">
          <mxGeometry x="900" y="40" width="78" height="628" as="geometry" />
        </mxCell>
        <mxCell id="UCEh_sZu_lQFCK1zteV--6" value="List All Products" style="sketch=0;points=[[0,0,0],[0.25,0,0],[0.5,0,0],[0.75,0,0],[1,0,0],[0,1,0],[0.25,1,0],[0.5,1,0],[0.75,1,0],[1,1,0],[0,0.25,0],[0,0.5,0],[0,0.75,0],[1,0.25,0],[1,0.5,0],[1,0.75,0]];outlineConnect=0;fontColor=#232F3E;fillColor=#ED7100;strokeColor=#ffffff;dashed=0;verticalLabelPosition=bottom;verticalAlign=top;align=center;html=1;fontSize=16;fontStyle=0;aspect=fixed;shape=mxgraph.aws4.resourceIcon;resIcon=mxgraph.aws4.lambda;" vertex="1" parent="UCEh_sZu_lQFCK1zteV--12">
          <mxGeometry width="78" height="78" as="geometry" />
        </mxCell>
        <mxCell id="UCEh_sZu_lQFCK1zteV--7" value="Retrieve Product by ID" style="sketch=0;points=[[0,0,0],[0.25,0,0],[0.5,0,0],[0.75,0,0],[1,0,0],[0,1,0],[0.25,1,0],[0.5,1,0],[0.75,1,0],[1,1,0],[0,0.25,0],[0,0.5,0],[0,0.75,0],[1,0.25,0],[1,0.5,0],[1,0.75,0]];outlineConnect=0;fontColor=#232F3E;fillColor=#ED7100;strokeColor=#ffffff;dashed=0;verticalLabelPosition=bottom;verticalAlign=top;align=center;html=1;fontSize=16;fontStyle=0;aspect=fixed;shape=mxgraph.aws4.resourceIcon;resIcon=mxgraph.aws4.lambda;" vertex="1" parent="UCEh_sZu_lQFCK1zteV--12">
          <mxGeometry y="138" width="78" height="78" as="geometry" />
        </mxCell>
        <mxCell id="UCEh_sZu_lQFCK1zteV--8" value="Add Product" style="sketch=0;points=[[0,0,0],[0.25,0,0],[0.5,0,0],[0.75,0,0],[1,0,0],[0,1,0],[0.25,1,0],[0.5,1,0],[0.75,1,0],[1,1,0],[0,0.25,0],[0,0.5,0],[0,0.75,0],[1,0.25,0],[1,0.5,0],[1,0.75,0]];outlineConnect=0;fontColor=#232F3E;fillColor=#ED7100;strokeColor=#ffffff;dashed=0;verticalLabelPosition=bottom;verticalAlign=top;align=center;html=1;fontSize=16;fontStyle=0;aspect=fixed;shape=mxgraph.aws4.resourceIcon;resIcon=mxgraph.aws4.lambda;" vertex="1" parent="UCEh_sZu_lQFCK1zteV--12">
          <mxGeometry y="275" width="78" height="78" as="geometry" />
        </mxCell>
        <mxCell id="UCEh_sZu_lQFCK1zteV--9" value="Update Product or Add Product with predefined UUID" style="sketch=0;points=[[0,0,0],[0.25,0,0],[0.5,0,0],[0.75,0,0],[1,0,0],[0,1,0],[0.25,1,0],[0.5,1,0],[0.75,1,0],[1,1,0],[0,0.25,0],[0,0.5,0],[0,0.75,0],[1,0.25,0],[1,0.5,0],[1,0.75,0]];outlineConnect=0;fontColor=#232F3E;fillColor=#ED7100;strokeColor=#ffffff;dashed=0;verticalLabelPosition=bottom;verticalAlign=top;align=center;html=1;fontSize=16;fontStyle=0;aspect=fixed;shape=mxgraph.aws4.resourceIcon;resIcon=mxgraph.aws4.lambda;" vertex="1" parent="UCEh_sZu_lQFCK1zteV--12">
          <mxGeometry y="413" width="78" height="78" as="geometry" />
        </mxCell>
        <mxCell id="UCEh_sZu_lQFCK1zteV--11" value="Remove Product by ID" style="sketch=0;points=[[0,0,0],[0.25,0,0],[0.5,0,0],[0.75,0,0],[1,0,0],[0,1,0],[0.25,1,0],[0.5,1,0],[0.75,1,0],[1,1,0],[0,0.25,0],[0,0.5,0],[0,0.75,0],[1,0.25,0],[1,0.5,0],[1,0.75,0]];outlineConnect=0;fontColor=#232F3E;fillColor=#ED7100;strokeColor=#ffffff;dashed=0;verticalLabelPosition=bottom;verticalAlign=top;align=center;html=1;fontSize=16;fontStyle=0;aspect=fixed;shape=mxgraph.aws4.resourceIcon;resIcon=mxgraph.aws4.lambda;" vertex="1" parent="UCEh_sZu_lQFCK1zteV--12">
          <mxGeometry y="550" width="78" height="78" as="geometry" />
        </mxCell>
        <mxCell id="UCEh_sZu_lQFCK1zteV--25" value="DynamoDB" style="sketch=0;points=[[0,0,0],[0.25,0,0],[0.5,0,0],[0.75,0,0],[1,0,0],[0,1,0],[0.25,1,0],[0.5,1,0],[0.75,1,0],[1,1,0],[0,0.25,0],[0,0.5,0],[0,0.75,0],[1,0.25,0],[1,0.5,0],[1,0.75,0]];outlineConnect=0;fontColor=#232F3E;fillColor=#C925D1;strokeColor=#ffffff;dashed=0;verticalLabelPosition=bottom;verticalAlign=top;align=center;html=1;fontSize=12;fontStyle=0;aspect=fixed;shape=mxgraph.aws4.resourceIcon;resIcon=mxgraph.aws4.dynamodb;" vertex="1" parent="UCEh_sZu_lQFCK1zteV--4">
          <mxGeometry x="1370" y="315" width="78" height="78" as="geometry" />
        </mxCell>
        <mxCell id="UCEh_sZu_lQFCK1zteV--26" value="" style="edgeStyle=orthogonalEdgeStyle;html=1;endArrow=block;elbow=vertical;startArrow=none;endFill=1;strokeColor=#545B64;rounded=0;fontSize=16;" edge="1" parent="UCEh_sZu_lQFCK1zteV--4" source="UCEh_sZu_lQFCK1zteV--6" target="UCEh_sZu_lQFCK1zteV--25">
          <mxGeometry width="100" relative="1" as="geometry">
            <mxPoint x="1230" y="190" as="sourcePoint" />
            <mxPoint x="1430" y="190" as="targetPoint" />
            <Array as="points">
              <mxPoint x="1330" y="79" />
              <mxPoint x="1330" y="354" />
            </Array>
          </mxGeometry>
        </mxCell>
        <mxCell id="UCEh_sZu_lQFCK1zteV--31" value="&lt;font style=&quot;font-size: 16px;&quot;&gt;Access Products Data&lt;/font&gt;" style="edgeLabel;html=1;align=center;verticalAlign=middle;resizable=0;points=[];" vertex="1" connectable="0" parent="UCEh_sZu_lQFCK1zteV--26">
          <mxGeometry x="-0.5705" y="-1" relative="1" as="geometry">
            <mxPoint x="38" y="-1" as="offset" />
          </mxGeometry>
        </mxCell>
        <mxCell id="UCEh_sZu_lQFCK1zteV--27" value="" style="edgeStyle=orthogonalEdgeStyle;html=1;endArrow=block;elbow=vertical;startArrow=none;endFill=1;strokeColor=#545B64;rounded=0;fontSize=16;" edge="1" parent="UCEh_sZu_lQFCK1zteV--4" source="UCEh_sZu_lQFCK1zteV--7" target="UCEh_sZu_lQFCK1zteV--25">
          <mxGeometry width="100" relative="1" as="geometry">
            <mxPoint x="988" y="89" as="sourcePoint" />
            <mxPoint x="1419" y="325" as="targetPoint" />
            <Array as="points">
              <mxPoint x="1330" y="217" />
              <mxPoint x="1330" y="354" />
            </Array>
          </mxGeometry>
        </mxCell>
        <mxCell id="UCEh_sZu_lQFCK1zteV--32" value="&lt;font style=&quot;font-size: 16px;&quot;&gt;Access Single Product Data&lt;/font&gt;" style="edgeLabel;html=1;align=center;verticalAlign=middle;resizable=0;points=[];" vertex="1" connectable="0" parent="UCEh_sZu_lQFCK1zteV--27">
          <mxGeometry x="-0.5251" relative="1" as="geometry">
            <mxPoint x="56" as="offset" />
          </mxGeometry>
        </mxCell>
        <mxCell id="UCEh_sZu_lQFCK1zteV--28" value="" style="edgeStyle=orthogonalEdgeStyle;html=1;endArrow=block;elbow=vertical;startArrow=none;endFill=1;strokeColor=#545B64;rounded=0;fontSize=16;" edge="1" parent="UCEh_sZu_lQFCK1zteV--4" source="UCEh_sZu_lQFCK1zteV--8" target="UCEh_sZu_lQFCK1zteV--25">
          <mxGeometry width="100" relative="1" as="geometry">
            <mxPoint x="988" y="227" as="sourcePoint" />
            <mxPoint x="1419" y="325" as="targetPoint" />
          </mxGeometry>
        </mxCell>
        <mxCell id="UCEh_sZu_lQFCK1zteV--33" value="Add Product Data" style="edgeLabel;html=1;align=center;verticalAlign=middle;resizable=0;points=[];fontSize=16;" vertex="1" connectable="0" parent="UCEh_sZu_lQFCK1zteV--28">
          <mxGeometry x="-0.2152" relative="1" as="geometry">
            <mxPoint as="offset" />
          </mxGeometry>
        </mxCell>
        <mxCell id="UCEh_sZu_lQFCK1zteV--29" value="" style="edgeStyle=orthogonalEdgeStyle;html=1;endArrow=block;elbow=vertical;startArrow=none;endFill=1;strokeColor=#545B64;rounded=0;fontSize=16;" edge="1" parent="UCEh_sZu_lQFCK1zteV--4" source="UCEh_sZu_lQFCK1zteV--9" target="UCEh_sZu_lQFCK1zteV--25">
          <mxGeometry width="100" relative="1" as="geometry">
            <mxPoint x="988" y="364" as="sourcePoint" />
            <mxPoint x="1380" y="364" as="targetPoint" />
            <Array as="points">
              <mxPoint x="1330" y="492" />
              <mxPoint x="1330" y="354" />
            </Array>
          </mxGeometry>
        </mxCell>
        <mxCell id="UCEh_sZu_lQFCK1zteV--34" value="Update or Add Product Data" style="edgeLabel;html=1;align=center;verticalAlign=middle;resizable=0;points=[];fontSize=16;" vertex="1" connectable="0" parent="UCEh_sZu_lQFCK1zteV--29">
          <mxGeometry x="-0.4373" relative="1" as="geometry">
            <mxPoint x="13" as="offset" />
          </mxGeometry>
        </mxCell>
        <mxCell id="UCEh_sZu_lQFCK1zteV--30" value="" style="edgeStyle=orthogonalEdgeStyle;html=1;endArrow=block;elbow=vertical;startArrow=none;endFill=1;strokeColor=#545B64;rounded=0;fontSize=16;" edge="1" parent="UCEh_sZu_lQFCK1zteV--4" source="UCEh_sZu_lQFCK1zteV--11" target="UCEh_sZu_lQFCK1zteV--25">
          <mxGeometry width="100" relative="1" as="geometry">
            <mxPoint x="988" y="502" as="sourcePoint" />
            <mxPoint x="1419" y="403" as="targetPoint" />
            <Array as="points">
              <mxPoint x="1330" y="629" />
              <mxPoint x="1330" y="354" />
            </Array>
          </mxGeometry>
        </mxCell>
        <mxCell id="UCEh_sZu_lQFCK1zteV--36" value="Remove Product Data" style="edgeLabel;html=1;align=center;verticalAlign=middle;resizable=0;points=[];fontSize=16;" vertex="1" connectable="0" parent="UCEh_sZu_lQFCK1zteV--30">
          <mxGeometry x="-0.4647" y="1" relative="1" as="geometry">
            <mxPoint x="-17" y="1" as="offset" />
          </mxGeometry>
        </mxCell>
        <mxCell id="UCEh_sZu_lQFCK1zteV--13" value="" style="group;fontSize=16;" vertex="1" connectable="0" parent="1">
          <mxGeometry x="40" y="205" width="338" height="78" as="geometry" />
        </mxCell>
        <mxCell id="UCEh_sZu_lQFCK1zteV--1" value="API Gateway" style="sketch=0;points=[[0,0,0],[0.25,0,0],[0.5,0,0],[0.75,0,0],[1,0,0],[0,1,0],[0.25,1,0],[0.5,1,0],[0.75,1,0],[1,1,0],[0,0.25,0],[0,0.5,0],[0,0.75,0],[1,0.25,0],[1,0.5,0],[1,0.75,0]];outlineConnect=0;fontColor=#232F3E;fillColor=#E7157B;strokeColor=#ffffff;dashed=0;verticalLabelPosition=bottom;verticalAlign=top;align=center;html=1;fontSize=16;fontStyle=0;aspect=fixed;shape=mxgraph.aws4.resourceIcon;resIcon=mxgraph.aws4.api_gateway;" vertex="1" parent="UCEh_sZu_lQFCK1zteV--13">
          <mxGeometry x="260" width="78" height="78" as="geometry" />
        </mxCell>
        <mxCell id="UCEh_sZu_lQFCK1zteV--2" value="User" style="sketch=0;outlineConnect=0;fontColor=#232F3E;gradientColor=none;strokeColor=#232F3E;fillColor=#ffffff;dashed=0;verticalLabelPosition=bottom;verticalAlign=top;align=center;html=1;fontSize=16;fontStyle=0;aspect=fixed;shape=mxgraph.aws4.resourceIcon;resIcon=mxgraph.aws4.user;" vertex="1" parent="UCEh_sZu_lQFCK1zteV--13">
          <mxGeometry x="30" y="9" width="60" height="60" as="geometry" />
        </mxCell>
        <mxCell id="UCEh_sZu_lQFCK1zteV--3" value="" style="edgeStyle=orthogonalEdgeStyle;html=1;endArrow=block;elbow=vertical;startArrow=none;endFill=1;strokeColor=#545B64;rounded=0;fontSize=16;" edge="1" parent="UCEh_sZu_lQFCK1zteV--13" source="UCEh_sZu_lQFCK1zteV--2" target="UCEh_sZu_lQFCK1zteV--1">
          <mxGeometry width="100" relative="1" as="geometry">
            <mxPoint x="360" y="110" as="sourcePoint" />
            <mxPoint x="460" y="110" as="targetPoint" />
          </mxGeometry>
        </mxCell>
        <mxCell id="UCEh_sZu_lQFCK1zteV--14" value="" style="edgeStyle=orthogonalEdgeStyle;html=1;endArrow=block;elbow=vertical;startArrow=none;endFill=1;strokeColor=#545B64;rounded=0;fontSize=16;" edge="1" parent="1" source="UCEh_sZu_lQFCK1zteV--1" target="UCEh_sZu_lQFCK1zteV--6">
          <mxGeometry width="100" relative="1" as="geometry">
            <mxPoint x="560" y="50" as="sourcePoint" />
            <mxPoint x="760" y="50" as="targetPoint" />
            <Array as="points">
              <mxPoint x="400" y="244" />
              <mxPoint x="400" y="-31" />
            </Array>
          </mxGeometry>
        </mxCell>
        <mxCell id="UCEh_sZu_lQFCK1zteV--20" value="GET /api/v1/products" style="edgeLabel;html=1;align=center;verticalAlign=middle;resizable=0;points=[];fontSize=16;" vertex="1" connectable="0" parent="UCEh_sZu_lQFCK1zteV--14">
          <mxGeometry x="0.1652" y="-3" relative="1" as="geometry">
            <mxPoint x="65" y="-3" as="offset" />
          </mxGeometry>
        </mxCell>
        <mxCell id="UCEh_sZu_lQFCK1zteV--15" value="" style="edgeStyle=orthogonalEdgeStyle;html=1;endArrow=block;elbow=vertical;startArrow=none;endFill=1;strokeColor=#545B64;rounded=0;fontSize=16;" edge="1" parent="1" source="UCEh_sZu_lQFCK1zteV--1" target="UCEh_sZu_lQFCK1zteV--7">
          <mxGeometry width="100" relative="1" as="geometry">
            <mxPoint x="349" y="195" as="sourcePoint" />
            <mxPoint x="880" y="-21" as="targetPoint" />
            <Array as="points">
              <mxPoint x="400" y="244" />
              <mxPoint x="400" y="107" />
            </Array>
          </mxGeometry>
        </mxCell>
        <mxCell id="UCEh_sZu_lQFCK1zteV--21" value="GET /api/v1/products/d9ac78a3-cd3d-49a0-a8f1-8c8dbbe526c3" style="edgeLabel;html=1;align=center;verticalAlign=middle;resizable=0;points=[];fontSize=16;" vertex="1" connectable="0" parent="UCEh_sZu_lQFCK1zteV--15">
          <mxGeometry x="-0.0079" relative="1" as="geometry">
            <mxPoint x="98" as="offset" />
          </mxGeometry>
        </mxCell>
        <mxCell id="UCEh_sZu_lQFCK1zteV--16" value="" style="edgeStyle=orthogonalEdgeStyle;html=1;endArrow=block;elbow=vertical;startArrow=none;endFill=1;strokeColor=#545B64;rounded=0;fontSize=16;" edge="1" parent="1" source="UCEh_sZu_lQFCK1zteV--1" target="UCEh_sZu_lQFCK1zteV--8">
          <mxGeometry width="100" relative="1" as="geometry">
            <mxPoint x="388" y="234" as="sourcePoint" />
            <mxPoint x="880" y="-21" as="targetPoint" />
            <Array as="points">
              <mxPoint x="500" y="244" />
              <mxPoint x="500" y="244" />
            </Array>
          </mxGeometry>
        </mxCell>
        <mxCell id="UCEh_sZu_lQFCK1zteV--22" value="POST /api/v1/products" style="edgeLabel;html=1;align=center;verticalAlign=middle;resizable=0;points=[];fontSize=16;" vertex="1" connectable="0" parent="UCEh_sZu_lQFCK1zteV--16">
          <mxGeometry x="-0.187" relative="1" as="geometry">
            <mxPoint x="84" as="offset" />
          </mxGeometry>
        </mxCell>
        <mxCell id="UCEh_sZu_lQFCK1zteV--17" value="" style="edgeStyle=orthogonalEdgeStyle;html=1;endArrow=block;elbow=vertical;startArrow=none;endFill=1;strokeColor=#545B64;rounded=0;fontSize=16;" edge="1" parent="1" source="UCEh_sZu_lQFCK1zteV--1" target="UCEh_sZu_lQFCK1zteV--9">
          <mxGeometry width="100" relative="1" as="geometry">
            <mxPoint x="270" y="577" as="sourcePoint" />
            <mxPoint x="762" y="440" as="targetPoint" />
            <Array as="points">
              <mxPoint x="400" y="244" />
              <mxPoint x="400" y="382" />
            </Array>
          </mxGeometry>
        </mxCell>
        <mxCell id="UCEh_sZu_lQFCK1zteV--23" value="PUT /api/v1/products/d9ac78a3-cd3d-49a0-a8f1-8c8dbbe526c3" style="edgeLabel;html=1;align=center;verticalAlign=middle;resizable=0;points=[];fontSize=16;" vertex="1" connectable="0" parent="UCEh_sZu_lQFCK1zteV--17">
          <mxGeometry x="-0.0381" y="-2" relative="1" as="geometry">
            <mxPoint x="102" y="-2" as="offset" />
          </mxGeometry>
        </mxCell>
        <mxCell id="UCEh_sZu_lQFCK1zteV--18" value="" style="edgeStyle=orthogonalEdgeStyle;html=1;endArrow=block;elbow=vertical;startArrow=none;endFill=1;strokeColor=#545B64;rounded=0;fontSize=16;" edge="1" parent="1" source="UCEh_sZu_lQFCK1zteV--1" target="UCEh_sZu_lQFCK1zteV--11">
          <mxGeometry width="100" relative="1" as="geometry">
            <mxPoint x="290" y="420" as="sourcePoint" />
            <mxPoint x="782" y="558" as="targetPoint" />
            <Array as="points">
              <mxPoint x="400" y="244" />
              <mxPoint x="400" y="519" />
            </Array>
          </mxGeometry>
        </mxCell>
        <mxCell id="UCEh_sZu_lQFCK1zteV--24" value="DELETE /api/v1/products/d9ac78a3-cd3d-49a0-a8f1-8c8dbbe526c3" style="edgeLabel;html=1;align=center;verticalAlign=middle;resizable=0;points=[];fontSize=16;" vertex="1" connectable="0" parent="UCEh_sZu_lQFCK1zteV--18">
          <mxGeometry x="0.2203" relative="1" as="geometry">
            <mxPoint x="54" as="offset" />
          </mxGeometry>
        </mxCell>
      </root>
    </mxGraphModel>
  </diagram>
</mxfile>
